<?xml version="1.0" encoding="UTF-8"?><svg id="a" xmlns="http://www.w3.org/2000/svg" viewBox="0 0 512 512"><path id="b" d="M83.56,211.08c-2.08,15.38-4.53,62.24,23.61,99.02,25.88,34.17,57.23,49.08,62.33,92.13.76,7.45.76,14.59-1.13,19.82-58.55-35.68-92.36-85.39-92.36-158.25,0-19.11,2.64-35.91,7.56-52.72" fill="#1a5dad"/><path id="c" d="M185.74,95.33c-12.84,7.93-27.01,24.5-31.73,33.38-66.48,122.41,68.18,174.58,63.46,258.7-.76,16.01-4.53,34.49-13.98,49.71,0,0-16.62-5.31-23.99-9.51,7.74-21.25,8.12-34.96,2.08-55.34-12.65-41.86-74.23-87.29-75.36-151.19-.76-49.87,25.88-104.97,79.52-125.74" fill="#1a5dad"/><path id="d" d="M281.12,248.02h153.75c.76,12.05,1.13,19.9,1.13,25.53,0,65.8-30.98,110.04-84.99,144.21-44.58,28.07-90.09,27.35-90.09,27.35,28.9-27.99,51.56-67.47,49.3-111.71-2.08-39.32-17.38-58.75-29.09-85.39" fill="#1a5dad"/><path id="e" d="M261.67,65.44c-10.2,6.11-68.18,43.76-49.49,130.89,10.2,47.73,68.75,102.35,66.3,163.32-1.7,43.92-26.82,76.27-33.62,85.31,0,0-13.98-.55-27.01-3.88,8.5-13,20.21-39.96,22.67-63.27,8.31-79.92-72.91-114.48-69.32-195.91,2.46-57.4,35.13-97.99,90.47-116.47" fill="#1a5dad"/></svg>