<?xml version="1.0" encoding="UTF-8"?><svg id="c" xmlns="http://www.w3.org/2000/svg" viewBox="0 0 291.41 21.23"><path d="M7.85,6.76c-.06.12-.14.21-.22.26s-.18.08-.29.08-.24-.04-.38-.13c-.14-.09-.31-.19-.5-.29-.19-.11-.42-.21-.68-.29-.26-.09-.56-.13-.92-.13-.32,0-.6.04-.83.11s-.43.18-.6.32c-.16.14-.28.3-.36.49-.08.19-.12.4-.12.63,0,.29.08.53.24.72.16.19.38.36.64.49.27.14.57.26.91.37s.69.22,1.04.35c.35.12.7.26,1.04.43.34.16.64.37.91.61.27.25.48.55.64.91.16.36.24.79.24,1.3,0,.56-.1,1.08-.29,1.56s-.47.91-.83,1.27c-.37.36-.81.65-1.34.85s-1.13.31-1.82.31c-.39,0-.78-.04-1.16-.11s-.75-.19-1.09-.33c-.35-.14-.68-.31-.98-.51-.3-.2-.58-.42-.81-.66l.67-1.1c.06-.08.14-.15.23-.2.09-.05.19-.08.29-.08.14,0,.3.06.46.17.16.12.36.25.58.39.22.14.49.27.79.39.3.12.67.17,1.1.17.65,0,1.16-.15,1.52-.46.36-.31.54-.75.54-1.33,0-.32-.08-.59-.24-.79s-.38-.38-.64-.52c-.27-.14-.57-.26-.91-.35s-.69-.2-1.04-.32-.7-.25-1.04-.41-.64-.37-.91-.62c-.27-.26-.48-.58-.64-.96-.16-.38-.24-.86-.24-1.42,0-.45.09-.89.27-1.31.18-.43.44-.8.78-1.13s.77-.59,1.27-.79c.5-.2,1.07-.3,1.71-.3.73,0,1.4.11,2.01.34.61.23,1.14.55,1.57.95l-.56,1.08Z" fill="#1696d2"/><path d="M24.2,16.84h-2.31v-5.39h-5.78v5.39h-2.31V4.51h2.31v5.3h5.78v-5.3h2.31v12.33Z" fill="#1696d2"/><path d="M36.55,12.29c.08.2.16.39.24.59.08-.2.16-.41.25-.6s.18-.39.27-.57l3.65-6.83c.04-.08.09-.15.14-.2.05-.05.1-.09.16-.11.06-.02.13-.04.2-.04.07,0,.16,0,.26,0h1.73v12.33h-2.02v-7.96c0-.15,0-.31.01-.49,0-.18.02-.36.04-.54l-3.72,6.99c-.09.16-.2.28-.33.37-.14.09-.29.13-.48.13h-.32c-.18,0-.34-.04-.48-.13-.14-.09-.25-.21-.33-.37l-3.78-7.02c.02.19.04.37.05.55,0,.18.01.35.01.5v7.96h-2.02V4.51h1.73c.1,0,.19,0,.26,0,.07,0,.14.02.2.04.06.02.12.06.17.11.05.05.1.12.14.2l3.68,6.84c.1.18.19.37.27.57Z" fill="#1696d2"/><path d="M54.32,14.99c.44,0,.84-.07,1.19-.22.35-.15.64-.35.89-.62.24-.27.43-.59.55-.97s.19-.81.19-1.28v-7.38h2.29v7.38c0,.73-.12,1.41-.35,2.03-.24.62-.58,1.16-1.02,1.61s-.98.8-1.61,1.06c-.63.25-1.34.38-2.13.38s-1.5-.13-2.13-.38c-.63-.25-1.17-.6-1.61-1.06s-.78-.99-1.01-1.61c-.24-.62-.35-1.3-.35-2.03v-7.38h2.29v7.37c0,.47.06.9.19,1.28.13.38.31.71.55.98.24.27.53.48.88.63.35.15.75.22,1.19.22Z" fill="#1696d2"/><path d="M67.55,12.02v4.82h-2.29V4.51h3.76c.84,0,1.56.09,2.16.26s1.09.42,1.47.73c.38.31.66.69.84,1.12.18.44.27.91.27,1.44,0,.41-.06.81-.18,1.18-.12.37-.3.7-.53,1.01s-.51.57-.85.79c-.34.23-.72.41-1.16.55.29.17.54.4.75.71l3.09,4.55h-2.06c-.2,0-.37-.04-.51-.12-.14-.08-.26-.19-.35-.34l-2.59-3.95c-.1-.15-.2-.25-.32-.32-.12-.06-.29-.09-.52-.09h-.98ZM67.55,10.38h1.43c.43,0,.81-.05,1.13-.16.32-.11.58-.26.79-.45.21-.19.36-.42.46-.68s.15-.55.15-.86c0-.62-.21-1.1-.62-1.44s-1.04-.5-1.89-.5h-1.47v4.09Z" fill="#1696d2"/><path d="M79.76,16.84V4.51h4.25c.81,0,1.5.08,2.07.23.57.15,1.04.37,1.41.66.37.28.63.63.8,1.03.17.4.26.86.26,1.36,0,.29-.04.57-.13.83-.08.26-.22.51-.4.74-.18.23-.41.44-.68.63s-.6.35-.98.48c1.69.38,2.54,1.3,2.54,2.74,0,.52-.1,1.01-.3,1.45-.2.44-.49.83-.87,1.15-.38.32-.85.57-1.41.75-.56.18-1.19.27-1.91.27h-4.65ZM82.05,9.85h1.83c.78,0,1.37-.14,1.77-.43s.61-.74.61-1.36-.18-1.1-.55-1.37c-.36-.27-.93-.41-1.7-.41h-1.96v3.56ZM82.05,11.44v3.61h2.33c.43,0,.78-.05,1.07-.15.29-.1.52-.24.69-.41.17-.17.3-.37.38-.6.08-.23.12-.47.12-.72s-.04-.51-.13-.72c-.08-.21-.22-.4-.4-.55s-.42-.27-.7-.35-.63-.12-1.03-.12h-2.32Z" fill="#1696d2"/><path d="M105.11,16.84h-1.77c-.2,0-.36-.05-.49-.15-.13-.1-.22-.22-.28-.37l-.92-2.51h-5.11l-.92,2.51c-.04.13-.13.25-.27.36-.13.11-.3.16-.49.16h-1.78l4.84-12.33h2.34l4.84,12.33ZM97.13,12.19h3.93l-1.5-4.1c-.07-.18-.14-.4-.23-.64-.08-.25-.16-.52-.24-.81-.08.29-.16.56-.23.81-.08.25-.15.47-.23.66l-1.5,4.08Z" fill="#1696d2"/><path d="M111.24,4.53c.07,0,.13.03.18.05.05.03.11.06.16.11s.11.11.17.19l6.47,8.24c-.02-.2-.04-.39-.05-.58,0-.19-.01-.37-.01-.53v-7.49h2.02v12.33h-1.18c-.18,0-.33-.03-.45-.09-.12-.06-.24-.16-.35-.31l-6.44-8.21c.02.18.03.36.04.54,0,.18.01.34.01.49v7.57h-2.02V4.51h1.2c.1,0,.19,0,.26.01Z" fill="#1696d2"/><path d="M138.53,6.76c-.06.12-.14.21-.22.26s-.18.08-.29.08-.24-.04-.38-.13c-.14-.09-.31-.19-.5-.29-.19-.11-.42-.21-.68-.29-.26-.09-.56-.13-.92-.13-.32,0-.6.04-.83.11s-.43.18-.6.32c-.16.14-.28.3-.36.49-.08.19-.12.4-.12.63,0,.29.08.53.24.72.16.19.38.36.64.49.27.14.57.26.91.37s.69.22,1.04.35c.35.12.7.26,1.04.43.34.16.64.37.91.61.27.25.48.55.64.91.16.36.24.79.24,1.3,0,.56-.1,1.08-.29,1.56s-.47.91-.83,1.27c-.37.36-.81.65-1.34.85s-1.13.31-1.82.31c-.39,0-.78-.04-1.16-.11s-.75-.19-1.09-.33c-.35-.14-.68-.31-.98-.51-.3-.2-.58-.42-.81-.66l.67-1.1c.06-.08.14-.15.23-.2.09-.05.19-.08.29-.08.14,0,.3.06.46.17.16.12.36.25.58.39.22.14.49.27.79.39.3.12.67.17,1.1.17.65,0,1.16-.15,1.52-.46.36-.31.54-.75.54-1.33,0-.32-.08-.59-.24-.79s-.38-.38-.64-.52c-.27-.14-.57-.26-.91-.35s-.69-.2-1.04-.32-.7-.25-1.04-.41-.64-.37-.91-.62c-.27-.26-.48-.58-.64-.96-.16-.38-.24-.86-.24-1.42,0-.45.09-.89.27-1.31.18-.43.44-.8.78-1.13s.77-.59,1.27-.79c.5-.2,1.07-.3,1.71-.3.73,0,1.4.11,2.01.34.61.23,1.14.55,1.57.95l-.56,1.08Z"/><path d="M154.88,16.84h-2.31v-5.39h-5.78v5.39h-2.31V4.51h2.31v5.3h5.78v-5.3h2.31v12.33Z"/><path d="M167.24,12.29c.08.2.16.39.24.59.08-.2.16-.41.25-.6s.18-.39.27-.57l3.65-6.83c.04-.08.09-.15.14-.2.05-.05.1-.09.16-.11.06-.02.13-.04.2-.04.07,0,.16,0,.26,0h1.73v12.33h-2.02v-7.96c0-.15,0-.31.01-.49,0-.18.02-.36.04-.54l-3.72,6.99c-.09.16-.2.28-.33.37-.14.09-.29.13-.48.13h-.32c-.18,0-.34-.04-.48-.13-.14-.09-.25-.21-.33-.37l-3.78-7.02c.02.19.04.37.05.55,0,.18.01.35.01.5v7.96h-2.02V4.51h1.73c.1,0,.19,0,.26,0,.07,0,.14.02.2.04.06.02.12.06.17.11.05.05.1.12.14.2l3.68,6.84c.1.18.19.37.27.57Z"/><path d="M182.62,16.84h-2.3V4.51h2.3v12.33Z"/><path d="M190.26,4.53c.07,0,.13.03.18.05.05.03.11.06.16.11s.11.11.17.19l6.47,8.24c-.02-.2-.04-.39-.05-.58,0-.19-.01-.37-.01-.53v-7.49h2.02v12.33h-1.18c-.18,0-.33-.03-.45-.09-.12-.06-.24-.16-.35-.31l-6.44-8.21c.02.18.03.36.04.54,0,.18.01.34.01.49v7.57h-2.02V4.51h1.2c.1,0,.19,0,.26.01Z"/><path d="M211.71,6.76c-.06.12-.14.21-.22.26s-.18.08-.29.08-.24-.04-.38-.13c-.14-.09-.31-.19-.5-.29-.19-.11-.42-.21-.68-.29-.26-.09-.56-.13-.92-.13-.32,0-.6.04-.83.11s-.43.18-.6.32c-.16.14-.28.3-.36.49-.08.19-.12.4-.12.63,0,.29.08.53.24.72.16.19.38.36.64.49.27.14.57.26.91.37s.69.22,1.04.35c.35.12.7.26,1.04.43.34.16.64.37.91.61.27.25.48.55.64.91.16.36.24.79.24,1.3,0,.56-.1,1.08-.29,1.56s-.47.91-.83,1.27c-.37.36-.81.65-1.34.85s-1.13.31-1.82.31c-.39,0-.78-.04-1.16-.11s-.75-.19-1.09-.33c-.35-.14-.68-.31-.98-.51-.3-.2-.58-.42-.81-.66l.67-1.1c.06-.08.14-.15.23-.2.09-.05.19-.08.29-.08.14,0,.3.06.46.17.16.12.36.25.58.39.22.14.49.27.79.39.3.12.67.17,1.1.17.65,0,1.16-.15,1.52-.46.36-.31.54-.75.54-1.33,0-.32-.08-.59-.24-.79s-.38-.38-.64-.52c-.27-.14-.57-.26-.91-.35s-.69-.2-1.04-.32-.7-.25-1.04-.41-.64-.37-.91-.62c-.27-.26-.48-.58-.64-.96-.16-.38-.24-.86-.24-1.42,0-.45.09-.89.27-1.31.18-.43.44-.8.78-1.13s.77-.59,1.27-.79c.5-.2,1.07-.3,1.71-.3.73,0,1.4.11,2.01.34.61.23,1.14.55,1.57.95l-.56,1.08Z"/><path d="M226.34,4.51v1.88h-3.71v10.44h-2.29V6.4h-3.73v-1.88h9.73Z"/><path d="M233.79,16.84h-2.3V4.51h2.3v12.33Z"/><path d="M248.66,4.51v1.88h-3.71v10.44h-2.29V6.4h-3.73v-1.88h9.73Z"/><path d="M258.49,14.99c.44,0,.84-.07,1.19-.22.35-.15.64-.35.89-.62.24-.27.43-.59.55-.97s.19-.81.19-1.28v-7.38h2.29v7.38c0,.73-.12,1.41-.35,2.03-.24.62-.58,1.16-1.02,1.61s-.98.8-1.61,1.06c-.63.25-1.34.38-2.13.38s-1.5-.13-2.13-.38c-.63-.25-1.17-.6-1.61-1.06s-.78-.99-1.01-1.61c-.24-.62-.35-1.3-.35-2.03v-7.38h2.29v7.37c0,.47.06.9.19,1.28.13.38.31.71.55.98.24.27.53.48.88.63.35.15.75.22,1.19.22Z"/><path d="M278.03,4.51v1.88h-3.71v10.44h-2.29V6.4h-3.73v-1.88h9.73Z"/><path d="M290.67,4.51v1.82h-5.46v3.42h4.3v1.76h-4.3v3.49h5.46v1.83h-7.77V4.51h7.77Z"/></svg>